<?xml version="1.0" encoding="UTF-8"?>
<svg width="8px" height="8px" viewBox="0 0 8 8" version="1.1" xmlns="http://www.w3.org/2000/svg" xmlns:xlink="http://www.w3.org/1999/xlink">
    <title>Shape</title>
    <defs>
        <rect id="path-1" x="0" y="0" width="619.902344" height="114" rx="3"></rect>
        <filter x="-1.1%" y="-4.4%" width="102.3%" height="112.3%" filterUnits="objectBoundingBox" id="filter-2">
            <feOffset dx="0" dy="2" in="SourceAlpha" result="shadowOffsetOuter1"></feOffset>
            <feGaussianBlur stdDeviation="2" in="shadowOffsetOuter1" result="shadowBlurOuter1"></feGaussianBlur>
            <feColorMatrix values="0 0 0 0 0   0 0 0 0 0   0 0 0 0 0  0 0 0 0.0847769475 0" type="matrix" in="shadowBlurOuter1"></feColorMatrix>
        </filter>
    </defs>
    <g id="Page-1" stroke="none" stroke-width="1" fill="none" fill-rule="evenodd">
        <g id="M_HOMEPAGE_PR" transform="translate(-564.000000, -209.000000)">
            <rect id="Rectangle-1" fill="#EAE9EB" x="-207" y="0" width="1440" height="1924"></rect>
            <g id="ONE" transform="translate(43.000000, 166.000000)">
                <g id="Rectangle-157">
                    <use fill="black" fill-opacity="1" filter="url(#filter-2)" xlink:href="#path-1"></use>
                    <use fill="#FFFFFF" fill-rule="evenodd" xlink:href="#path-1"></use>
                </g>
                <g id="INSTAGRAM" transform="translate(361.000000, 18.000000)">
                    <text id="COMMENTS" font-family="Helvetica" font-size="8" font-weight="normal" fill="#8D8D8D">
                        <tspan x="169.667969" y="32">COMMENTS</tspan>
                    </text>
                    <path d="M161.015287,25 L166.894794,25 C167.453157,25 167.91,25.413392 167.91,26.0152063 L167.91,31.8948748 C167.91,32.4966891 167.453157,32.9100811 166.894794,32.9100811 L161.015287,32.9100811 C160.456762,32.9100811 160,32.4966891 160,31.8948748 L160,26.0152063 C160,25.413392 160.456762,25 161.015287,25 L161.015287,25 L161.015287,25 Z M165.762148,25.8788438 C165.566254,25.8788438 165.406176,26.0390027 165.406176,26.2349781 L165.406176,27.0873453 C165.406176,27.2832395 165.566254,27.4434796 165.762148,27.4434796 L166.65618,27.4434796 C166.852074,27.4434796 167.012314,27.2832395 167.012314,27.0873453 L167.012314,26.2349781 C167.012314,26.0390027 166.852074,25.8788438 166.65618,25.8788438 L165.762148,25.8788438 L165.762148,25.8788438 L165.762148,25.8788438 Z M167.01605,28.3451452 L166.319862,28.3451452 C166.385729,28.5602065 166.421383,28.7880188 166.421383,29.0237091 C166.421383,30.3394164 165.320412,31.4059515 163.962553,31.4059515 C162.604776,31.4059515 161.503967,30.3394164 161.503967,29.0237091 C161.503967,28.7878564 161.53954,28.5601253 161.605488,28.3451452 L160.879006,28.3451452 L160.879006,31.6864733 C160.879006,31.8593832 161.020485,32.0009436 161.193476,32.0009436 L166.701742,32.0009436 C166.874733,32.0009436 167.016212,31.8594644 167.016212,31.6864733 L167.016212,28.3451452 L167.01605,28.3451452 L167.01605,28.3451452 Z M163.962472,27.3985669 C163.085171,27.3985669 162.373877,28.0876889 162.373877,28.9378632 C162.373877,29.7880376 163.085171,30.4771596 163.962472,30.4771596 C164.839854,30.4771596 165.551229,29.7880376 165.551229,28.9378632 C165.551229,28.0876889 164.839935,27.3985669 163.962472,27.3985669 L163.962472,27.3985669 Z" id="Shape" fill="#D9D9D9"></path>
                </g>
            </g>
        </g>
    </g>
</svg>