<?xml version="1.0" encoding="UTF-8"?>
<svg width="9px" height="9px" viewBox="0 0 9 9" version="1.1" xmlns="http://www.w3.org/2000/svg" xmlns:xlink="http://www.w3.org/1999/xlink">
    <title>Shape</title>
    <defs>
        <rect id="path-1" x="0" y="0" width="619.902344" height="114" rx="3"></rect>
        <filter x="-1.1%" y="-4.4%" width="102.3%" height="112.3%" filterUnits="objectBoundingBox" id="filter-2">
            <feOffset dx="0" dy="2" in="SourceAlpha" result="shadowOffsetOuter1"></feOffset>
            <feGaussianBlur stdDeviation="2" in="shadowOffsetOuter1" result="shadowBlurOuter1"></feGaussianBlur>
            <feColorMatrix values="0 0 0 0 0   0 0 0 0 0   0 0 0 0 0  0 0 0 0.0847769475 0" type="matrix" in="shadowBlurOuter1"></feColorMatrix>
        </filter>
    </defs>
    <g id="Page-1" stroke="none" stroke-width="1" fill="none" fill-rule="evenodd">
        <g id="M_HOMEPAGE_PR" transform="translate(-490.000000, -253.000000)">
            <rect id="Rectangle-1" fill="#EAE9EB" x="-207" y="0" width="1440" height="1924"></rect>
            <g id="ONE" transform="translate(43.000000, 166.000000)">
                <g id="Rectangle-157">
                    <use fill="black" fill-opacity="1" filter="url(#filter-2)" xlink:href="#path-1"></use>
                    <use fill="#FFFFFF" fill-rule="evenodd" xlink:href="#path-1"></use>
                </g>
                <g id="STATS" transform="translate(361.000000, 18.000000)">
                    <g id="SNAPCHAT" transform="translate(0.000000, 44.000000)">
                        <text id="SCREENS" font-family="Helvetica" font-size="8" font-weight="normal" fill="#8D8D8D">
                            <tspan x="94.6621094" y="32">SCREENS</tspan>
                        </text>
                        <path d="M90.4880524,33.445902 C90.4734744,33.4470248 90.4582806,33.4476405 90.4430868,33.4476405 C89.9099108,33.4476405 89.5676799,33.2057356 89.2367674,32.9717625 C89.0082634,32.8102994 88.7926532,32.6578909 88.5385788,32.6155693 C88.4146021,32.5950514 88.2912048,32.5846204 88.1719546,32.5846204 C87.9571232,32.5846204 87.7876376,32.6177787 87.6639144,32.6419728 C87.5887243,32.6566957 87.5238565,32.6693361 87.4745628,32.6693361 C87.4230597,32.6693361 87.3672467,32.6581988 87.3429982,32.5753303 C87.3219189,32.5035267 87.3066708,32.4340048 87.2920022,32.3667285 C87.254208,32.1936029 87.2273699,32.0871379 87.1548238,32.0760007 C86.3091705,31.9453778 86.0671388,31.7672722 86.0131729,31.6408869 C86.0055307,31.6228137 86.0011845,31.6047043 86.0001523,31.5867761 C85.9974177,31.5382248 86.0318074,31.49536 86.0797792,31.4875186 C87.3797421,31.2734478 87.9626827,29.9448176 87.9868769,29.8883889 C88.068532,29.7225432 88.0841061,29.5825759 88.0354281,29.4678531 C87.9462213,29.2576033 87.6552762,29.1652093 87.4626649,29.1041083 C87.4155444,29.0892043 87.3708685,29.0750971 87.3356277,29.0611891 C86.9513107,28.9092515 86.9193295,28.7532936 86.9344327,28.6738116 C86.9601843,28.5383716 87.1411874,28.4439855 87.2875654,28.4439855 C87.3277139,28.4439855 87.3630453,28.4511025 87.3927628,28.4649743 C87.5656529,28.5459594 87.7214478,28.5870133 87.8558918,28.5870133 C88.0416577,28.5870133 88.1227333,28.5089439 88.1326573,28.4987121 C88.1279307,28.4107367 88.1220814,28.3188317 88.1161053,28.2240291 C88.0773875,27.6094334 88.0294158,26.8457613 88.2238561,26.4098506 C88.8066156,25.1031872 90.042417,25.0016842 90.4072846,25.0016842 C90.4166291,25.0016842 90.5672447,25.0000905 90.5672447,25.0000905 C90.9545679,25 92.1930677,25.1017022 92.7761531,26.4090719 C92.9706478,26.845218 92.9225312,27.609542 92.8837409,28.223667 L92.8821292,28.2503602 C92.8767507,28.3358907 92.8715714,28.4189946 92.8672251,28.4985672 C92.8765153,28.5080565 92.9510896,28.579842 93.1195068,28.5863071 C93.2476668,28.5813994 93.3947511,28.540599 93.5561599,28.4649924 C93.6034797,28.4429171 93.656015,28.4382449 93.691781,28.4382449 C93.7463988,28.4382449 93.8017954,28.4488208 93.8477751,28.4680167 C93.9811325,28.515427 94.066663,28.6069518 94.0684921,28.7025692 C94.0701943,28.792609 94.0014512,28.9279947 93.6642366,29.0612072 C93.6292855,29.0749341 93.5846097,29.0891318 93.537308,29.1041264 C93.3445157,29.1652998 93.0536611,29.2576214 92.9645087,29.4678169 C92.9157764,29.5824854 92.9313866,29.7223622 93.010923,29.8836804 C93.0372359,29.9447814 93.6196694,31.2730312 94.9201938,31.4873375 C94.9682199,31.4952513 95.0025009,31.53808 94.9998569,31.5866855 C94.9987704,31.6049035 94.9943336,31.6232483 94.9865647,31.6410861 C94.9329247,31.7665659 94.6910741,31.9444361 93.8451492,32.0751495 C93.7760439,32.0857616 93.7492601,32.1758195 93.7080251,32.3646459 C93.6930305,32.433371 93.6778367,32.5008827 93.6569385,32.5718714 C93.6389197,32.6334795 93.6005278,32.6623096 93.5359498,32.6623096 C93.4806076,32.6623096 93.4168807,32.6542872 93.3361311,32.6384415 C93.1929222,32.6104263 93.0323464,32.5846204 92.8280546,32.5846204 C92.7087501,32.5846204 92.5853166,32.5950514 92.4612493,32.6155693 C92.2074646,32.6578909 91.9919812,32.8100096 91.7639118,32.9712374 C91.4323474,33.2057356 91.0901708,33.4476405 90.5568318,33.4476405 C90.5336337,33.4476405 90.5108521,33.4469705 90.4880524,33.445902 Z" id="Shape" fill="#D9D9D9"></path>
                    </g>
                </g>
            </g>
        </g>
    </g>
</svg>